<?xml version="1.0" encoding="utf-8"?>
<!-- Generator: Adobe Illustrator 18.0.0, SVG Export Plug-In . SVG Version: 6.00 Build 0)  -->
<!DOCTYPE svg PUBLIC "-//W3C//DTD SVG 1.1//EN" "http://www.w3.org/Graphics/SVG/1.1/DTD/svg11.dtd">
<svg version="1.1" id="Calque_1" xmlns="http://www.w3.org/2000/svg" xmlns:xlink="http://www.w3.org/1999/xlink" x="0px" y="0px"
	 viewBox="0 0 320 568" enable-background="new 0 0 320 568" xml:space="preserve">
<path d="M320,212v356H0V402.5c1.5-1,3.2-1.8,4.6-2.9c8.7-6.6,15.8-14.8,21.8-23.9c4.8-7.3,9.6-14.4,16.2-20.2
	c10.8-9.6,23.7-14.5,37.7-17c18.8-3.4,37.8-3.5,56.8-3.5c14.8,0,29.4-1,43.8-4.8c28.3-7.5,48.6-25,62.7-50.2
	c3.6-6.5,7-13.3,9.8-20.2c10.1-24.9,28.7-39.5,54.4-45.8C311.7,213,315.9,212.7,320,212z"/>
</svg>
