<?xml version="1.0" encoding="utf-8"?>
<!-- Generator: Adobe Illustrator 18.1.0, SVG Export Plug-In . SVG Version: 6.00 Build 0)  -->
<svg version="1.1" id="Calque_1" xmlns="http://www.w3.org/2000/svg" xmlns:xlink="http://www.w3.org/1999/xlink" x="0px" y="0px"
	 width="320px" height="284px" viewBox="0 0 320 284" enable-background="new 0 0 320 284" xml:space="preserve">
<g>
	<path d="M0.5-0.5C0.5-0.5,0.5-0.5,0.5-0.5c106.7,0,213.3,0,320,0l0,0c-0.3,0-0.7,0-1,0c-7.5,0-15.1,0-22.6,0c-7.3,0-13.1,0-17.6,0
		c-2.9,0-5.9,0-8.7,0c-10.5,0-25.1,0-43.9,0c-8.9,0-17.4,0-25.7,0c-3.5,0-7.4,0-11.1,0c-6.7,0-12,0-16.6,0c-4.6,0-9.1,0-13.2,0
		c-8.1,0-18.2,0-30.2,0c-17.1,0-32.7,0-45.5,0c-5.7,0-10,0-13.8,0c-5.2,0-10.3,0-15.6,0c-3.6,0-9.1,0-16.2,0c-4,0-8.1,0-12.2,0
		c-7.7,0-15.6,0-22.5,0C3-0.5,1.7-0.5,0.5-0.5z"/>
</g>
</svg>
