<?xml version="1.0" encoding="utf-8"?>
<!-- Generator: Adobe Illustrator 18.1.0, SVG Export Plug-In . SVG Version: 6.00 Build 0)  -->
<svg version="1.1" id="Calque_1" xmlns="http://www.w3.org/2000/svg" xmlns:xlink="http://www.w3.org/1999/xlink" x="0px" y="0px"
	 width="320px" height="284px" viewBox="0 0 320 284" enable-background="new 0 0 320 284" xml:space="preserve">
<g>
	<path d="M320,284L320,284c-106.7,0-213.3,0-320,0c0,0,0,0,0,0c7.7,0,15.4,0,23.1,0c8.7,0,15.8,0,20.9,0c2.5,0,5.3,0,7.8,0
		c11.3,0,27,0,47.1,0c7.8,0,15.3,0,22.4,0c9.2,0,17.7,0,25.1,0c4.5,0,8.7,0,12.5,0c8.5,0,18,0,30.6,0c8,0,16.3,0,25,0
		c10.7,0,19.3,0,25.8,0c5.2,0,9.6,0,13.8,0c4.7,0,8.8,0,13.3,0c3.6,0,9.1,0,16.4,0c4,0,8.1,0,12.2,0C304.4,284,312.8,284,320,284z"
		/>
</g>
</svg>
